<svg xmlns="http://www.w3.org/2000/svg" viewBox="0 0 96.39 118.19"><defs><style>.cls-1{fill:#fff;}</style></defs><g id="Layer_2" data-name="Layer 2"><g id="Layer_1-2" data-name="Layer 1"><g id="Camada_1"><path class="cls-1" d="M48.21,0A30.76,30.76,0,1,1,26.47,9,30.61,30.61,0,0,1,48.21,0ZM72.26,68.81a2.39,2.39,0,0,1,2.66-4A48.56,48.56,0,0,1,90.7,82.26a47.65,47.65,0,0,1,5.69,22.63v10.9a2.41,2.41,0,0,1-2.4,2.4H2.4a2.41,2.41,0,0,1-2.4-2.4v-10.9A47.63,47.63,0,0,1,5.75,82.16,48.73,48.73,0,0,1,21.66,64.72a2.39,2.39,0,1,1,2.65,4A44,44,0,0,0,10,84.42,43,43,0,0,0,4.8,104.89v8.5H91.58v-8.5a43.09,43.09,0,0,0-5.1-20.38A43.76,43.76,0,0,0,72.25,68.83Zm-5.7-56.42a26,26,0,1,0,7.6,18.35A26,26,0,0,0,66.56,12.39Z"/></g></g></g></svg>